<svg width="30" height="30" viewBox="0 0 30 30" fill="none" xmlns="http://www.w3.org/2000/svg">
<path d="M15 3C16.8122 3.00105 18.6006 3.41251 20.231 4.20351C21.8614 4.9945 23.2915 6.14449 24.414 7.56718C25.5364 8.98986 26.3221 10.6483 26.712 12.418C27.1019 14.1877 27.086 16.0228 26.6653 17.7855C26.2447 19.5481 25.4303 21.1926 24.2832 22.5956C23.1362 23.9985 21.6863 25.1235 20.0424 25.886C18.3984 26.6485 16.6032 27.0288 14.7912 26.9983C12.9793 26.9678 11.1979 26.5274 9.5805 25.71L9.399 25.6125L3.9315 26.9775C3.82628 27.004 3.71657 27.0073 3.60994 26.9872C3.50331 26.9671 3.4023 26.9242 3.31389 26.8613C3.22547 26.7984 3.15176 26.7171 3.09782 26.6229C3.04389 26.5288 3.01103 26.4241 3.0015 26.316V26.193L3.0225 26.0685L4.3875 20.6025L4.293 20.4225C3.60658 19.0712 3.18403 17.6015 3.048 16.092L3.0105 15.519L3 15C3 11.8174 4.26428 8.76515 6.51472 6.51472C8.76516 4.26428 11.8174 3 15 3ZM15.75 16.5H11.25L11.115 16.512C10.9421 16.5433 10.7856 16.6343 10.673 16.7692C10.5603 16.9041 10.4986 17.0743 10.4986 17.25C10.4986 17.4257 10.5603 17.5959 10.673 17.7308C10.7856 17.8656 10.9421 17.9567 11.115 17.988L11.25 18H15.75L15.885 17.988C16.0579 17.9567 16.2144 17.8656 16.327 17.7308C16.4397 17.5959 16.5014 17.4257 16.5014 17.25C16.5014 17.0743 16.4397 16.9041 16.327 16.7692C16.2144 16.6343 16.0579 16.5433 15.885 16.512L15.75 16.5ZM18.75 12H11.25L11.115 12.012C10.9421 12.0433 10.7856 12.1343 10.673 12.2692C10.5603 12.4041 10.4986 12.5743 10.4986 12.75C10.4986 12.9257 10.5603 13.0959 10.673 13.2308C10.7856 13.3657 10.9421 13.4567 11.115 13.488L11.25 13.5H18.75L18.885 13.488C19.0579 13.4567 19.2144 13.3657 19.327 13.2308C19.4397 13.0959 19.5014 12.9257 19.5014 12.75C19.5014 12.5743 19.4397 12.4041 19.327 12.2692C19.2144 12.1343 19.0579 12.0433 18.885 12.012L18.75 12Z" fill="#A3A3A3"/>
</svg>
