<svg width="92" height="98" viewBox="0 0 92 98" fill="none" xmlns="http://www.w3.org/2000/svg">
<path d="M1 52.8632C9.96788 52.9341 28.1397 52.8721 28.1397 52.8721V73.8256H64.0599V52.8721L86.6638 52.8632C84.7447 75.8213 67.1781 93.8006 45.7912 93.8006C28.9033 93.8006 14.3974 82.5899 8.09692 66.5696" stroke="url(#paint0_linear_1364_9874)" stroke-width="8"/>
<path d="M84.0348 31.9945C77.8998 15.568 63.2028 4 46.0478 4C24.4694 4 6.84325 22.6349 5.19067 45.8876H28.1397V34.912L45.8661 24.905L64.0599 34.912V45.8876H91.0001" stroke="url(#paint1_linear_1364_9874)" stroke-width="8"/>
<path d="M47.5381 44.6102C47.5381 42.1003 49.5728 40.0657 52.0827 40.0657C54.5925 40.0657 56.6272 42.1003 56.6272 44.6102V50.1728H47.5381V44.6102Z" fill="url(#paint2_linear_1364_9874)"/>
<path d="M47.5381 57.4078C47.5381 54.898 49.5728 52.8633 52.0827 52.8633C54.5925 52.8633 56.6272 54.898 56.6272 57.4078V62.9704H47.5381V57.4078Z" fill="url(#paint3_linear_1364_9874)"/>
<path d="M35.7588 44.6102C35.7588 42.1003 37.7935 40.0657 40.3034 40.0657C42.8132 40.0657 44.8479 42.1003 44.8479 44.6102V50.1728H35.7588V44.6102Z" fill="url(#paint4_linear_1364_9874)"/>
<path d="M35.7588 57.4078C35.7588 54.898 37.7935 52.8633 40.3034 52.8633C42.8132 52.8633 44.8479 54.898 44.8479 57.4078V62.9704H35.7588V57.4078Z" fill="url(#paint5_linear_1364_9874)"/>
<defs>
<linearGradient id="paint0_linear_1364_9874" x1="43.8319" y1="52.8632" x2="43.8319" y2="93.8006" gradientUnits="userSpaceOnUse">
<stop stop-color="#1DC879"/>
<stop offset="1" stop-color="#5EDC77"/>
</linearGradient>
<linearGradient id="paint1_linear_1364_9874" x1="48.0954" y1="4" x2="48.0954" y2="45.8876" gradientUnits="userSpaceOnUse">
<stop stop-opacity="0.77"/>
<stop offset="0.761" stop-color="#1DC879"/>
</linearGradient>
<linearGradient id="paint2_linear_1364_9874" x1="52.0827" y1="40.0657" x2="52.0827" y2="50.1728" gradientUnits="userSpaceOnUse">
<stop stop-color="#2CAE72"/>
<stop offset="1" stop-color="#5EDC77"/>
</linearGradient>
<linearGradient id="paint3_linear_1364_9874" x1="52.0827" y1="52.8633" x2="52.0827" y2="62.9704" gradientUnits="userSpaceOnUse">
<stop stop-color="#1DC879"/>
<stop offset="1" stop-color="#5EDC77"/>
</linearGradient>
<linearGradient id="paint4_linear_1364_9874" x1="40.3034" y1="40.0657" x2="40.3034" y2="50.1728" gradientUnits="userSpaceOnUse">
<stop stop-color="#2CAE72"/>
<stop offset="1" stop-color="#5EDC77"/>
</linearGradient>
<linearGradient id="paint5_linear_1364_9874" x1="40.3034" y1="52.8633" x2="40.3034" y2="62.9704" gradientUnits="userSpaceOnUse">
<stop stop-color="#1DC879"/>
<stop offset="1" stop-color="#5EDC77"/>
</linearGradient>
</defs>
</svg>
