<svg width="30" height="30" viewBox="0 0 30 30" fill="none" xmlns="http://www.w3.org/2000/svg">
<path d="M12.5 2.5C10.9357 2.50084 9.39343 2.86864 7.99712 3.57386C6.60081 4.27908 5.38942 5.30203 4.46031 6.56051C3.5312 7.81899 2.91029 9.27788 2.64748 10.8199C2.38467 12.362 2.48729 13.9442 2.9471 15.4394C3.4069 16.9346 4.21107 18.301 5.29496 19.429C6.37885 20.5569 7.71223 21.4148 9.18794 21.9337C10.6636 22.4526 12.2405 22.6181 13.7918 22.4169C15.3431 22.2157 16.8255 21.6533 18.12 20.775L24.3 26.95C24.4717 27.1342 24.6787 27.282 24.9087 27.3845C25.1387 27.4869 25.3869 27.542 25.6387 27.5465C25.8904 27.5509 26.1405 27.5046 26.374 27.4103C26.6075 27.316 26.8195 27.1756 26.9976 26.9976C27.1756 26.8195 27.316 26.6075 27.4103 26.374C27.5046 26.1405 27.5509 25.8905 27.5465 25.6387C27.542 25.3869 27.4869 25.1387 27.3845 24.9087C27.282 24.6787 27.1342 24.4717 26.95 24.3L20.775 18.12C21.7966 16.6165 22.389 14.8629 22.4886 13.0478C22.5882 11.2328 22.1912 9.42494 21.3402 7.81865C20.4892 6.21237 19.2165 4.86841 17.6589 3.93129C16.1013 2.99417 14.3178 2.49934 12.5 2.5ZM6.25 12.5C6.25 10.8424 6.90848 9.25269 8.08058 8.08058C9.25268 6.90848 10.8424 6.25 12.5 6.25C14.1576 6.25 15.7473 6.90848 16.9194 8.08058C18.0915 9.25269 18.75 10.8424 18.75 12.5C18.75 14.1576 18.0915 15.7473 16.9194 16.9194C15.7473 18.0915 14.1576 18.75 12.5 18.75C10.8424 18.75 9.25268 18.0915 8.08058 16.9194C6.90848 15.7473 6.25 14.1576 6.25 12.5Z" fill="#A3A3A3"/>
</svg>
